<?xml version="1.0" encoding="UTF-8"?>
<!-- Generated by scripts/gen-symbolsets.swift for SkipUI's Image(systemName:) on Android.
     Geometry from Google Material Symbols (Apache License 2.0): https://fonts.google.com/icons -->
<svg height="600" width="800" xmlns="http://www.w3.org/2000/svg" xmlns:xlink="http://www.w3.org/1999/xlink">
    <g id="Notes" font-family="'LucidaGrande', 'Lucida Grande', sans-serif" font-size="13">
        <rect fill="white" height="600.0" width="800.0" x="0.0" y="0.0" />
        <g font-size="13">
            <text x="18.0" y="176.0">Small</text>
            <text x="18.0" y="376.0">Medium</text>
            <text x="18.0" y="576.0">Large</text>
        </g>
        <g font-size="9">
            <text x="250.0" y="30.0">Ultralight</text>
            <text x="450.0" y="30.0">Regular</text>
            <text x="650.0" y="30.0">Black</text>
            <text id="template-version" fill="#505050" text-anchor="end" x="785.0" y="575.0">Template v.3.0</text>
        </g>
    </g>
    <g id="Guides" stroke="rgb(39, 170, 225)" stroke-width="0.5">
        <path id="Capline-S" d="M18,76 l800,0" />
        <path id="H-reference" d="M85,145.755 L87.685,145.755 L113.369,79.287 L114.052,79.287 L114.052,76 L112.148,76 L85,145.755 Z M95.693,121.536 L130.996,121.536 L130.263,119.313 L96.474,119.313 L95.693,121.536 Z M139.15,145.755 L141.787,145.755 L114.638,76 L113.466,76 L113.466,79.287 L139.15,145.755 Z" stroke="none" />
        <path id="Baseline-S" d="M18,146 l800,0" />
        <path id="left-margin-Ultralight-S" d="M220,56 l0,110" />
        <path id="right-margin-Ultralight-S" d="M310,56 l0,110" />
        <path id="left-margin-Regular-S" d="M420,56 l0,110" />
        <path id="right-margin-Regular-S" d="M510,56 l0,110" />
        <path id="left-margin-Black-S" d="M620,56 l0,110" />
        <path id="right-margin-Black-S" d="M710,56 l0,110" />
        <path id="Capline-M" d="M18,276 l800,0" />
        <path id="Baseline-M" d="M18,346 l800,0" />
        <path id="Capline-L" d="M18,476 l800,0" />
        <path id="Baseline-L" d="M18,546 l800,0" />
    </g>
    <g id="Symbols">
        <g id="Ultralight-S">
            <path d="m388-80-20-126q-19-7-40-19t-37-25l-118 54-93-164 108-79q-2-9-2.5-20.5T185-480q0-9 .5-20.5T188-521L80-600l93-164 118 54q16-13 37-25t40-18l20-127h184l20 126q19 7 40.5 18.5T669-710l118-54 93 164-108 77q2 10 2.5 21.5t.5 21.5q0 10-.5 21t-2.5 21l108 78-93 164-118-54q-16 13-36.5 25.5T592-206L572-80H388Zm48-60h88l14-112q33-8 62.5-25t53.5-41l106 46 40-72-94-69q4-17 6.5-33.5T715-480q0-17-2-33.5t-7-33.5l94-69-40-72-106 46q-23-26-52-43.5T538-708l-14-112h-88l-14 112q-34 7-63.5 24T306-642l-106-46-40 72 94 69q-4 17-6.5 33.5T245-480q0 17 2.5 33.5T254-413l-94 69 40 72 106-46q24 24 53.5 41t62.5 25l14 112Zm44-210q54 0 92-38t38-92q0-54-38-92t-92-38q-54 0-92 38t-38 92q0 54 38 92t92 38Zm0-130Z" />
        </g>
        <g id="Regular-S">
            <path d="m388-80-20-126q-19-7-40-19t-37-25l-118 54-93-164 108-79q-2-9-2.5-20.5T185-480q0-9 .5-20.5T188-521L80-600l93-164 118 54q16-13 37-25t40-18l20-127h184l20 126q19 7 40.5 18.5T669-710l118-54 93 164-108 77q2 10 2.5 21.5t.5 21.5q0 10-.5 21t-2.5 21l108 78-93 164-118-54q-16 13-36.5 25.5T592-206L572-80H388Zm48-60h88l14-112q33-8 62.5-25t53.5-41l106 46 40-72-94-69q4-17 6.5-33.5T715-480q0-17-2-33.5t-7-33.5l94-69-40-72-106 46q-23-26-52-43.5T538-708l-14-112h-88l-14 112q-34 7-63.5 24T306-642l-106-46-40 72 94 69q-4 17-6.5 33.5T245-480q0 17 2.5 33.5T254-413l-94 69 40 72 106-46q24 24 53.5 41t62.5 25l14 112Zm44-210q54 0 92-38t38-92q0-54-38-92t-92-38q-54 0-92 38t-38 92q0 54 38 92t92 38Zm0-130Z" />
        </g>
        <g id="Black-S">
            <path d="m388-80-20-126q-19-7-40-19t-37-25l-118 54-93-164 108-79q-2-9-2.5-20.5T185-480q0-9 .5-20.5T188-521L80-600l93-164 118 54q16-13 37-25t40-18l20-127h184l20 126q19 7 40.5 18.5T669-710l118-54 93 164-108 77q2 10 2.5 21.5t.5 21.5q0 10-.5 21t-2.5 21l108 78-93 164-118-54q-16 13-36.5 25.5T592-206L572-80H388Zm48-60h88l14-112q33-8 62.5-25t53.5-41l106 46 40-72-94-69q4-17 6.5-33.5T715-480q0-17-2-33.5t-7-33.5l94-69-40-72-106 46q-23-26-52-43.5T538-708l-14-112h-88l-14 112q-34 7-63.5 24T306-642l-106-46-40 72 94 69q-4 17-6.5 33.5T245-480q0 17 2.5 33.5T254-413l-94 69 40 72 106-46q24 24 53.5 41t62.5 25l14 112Zm44-210q54 0 92-38t38-92q0-54-38-92t-92-38q-54 0-92 38t-38 92q0 54 38 92t92 38Zm0-130Z" />
        </g>
    </g>
</svg>
